# xmcd
#
# Track frame offsets:
#	150
#	13243
#	28709
#	42339
#	60107
#	75476
#	90812
#	111166
#	124130
#	142523
#
# Disc length: 2081 seconds
# Revision: 0
# Processed by: cddbd v1.5.2PL0 Copyright (c) Steve Scherf et al.
# Submitted via: dBpowerAMP V12.0
#
DISCID=6a081f0a
DTITLE=The Steeldrivers - Hammer Down
DYEAR=2012
DGENRE=Country
TTITLE0=Shallow Grave
TTITLE1=How Long Have I Been Your Fool
TTITLE2=When You Don't Come Home
TTITLE3=I'll Be There
TTITLE4=Burnin' the Woodshed Down
TTITLE5=Wearin' a Hole
TTITLE6=Lonesome Goodbye
TTITLE7=Hell On Wheels
TTITLE8=Cry No Mississippi
TTITLE9=When I'm Gone
EXTD=
EXTT0=
EXTT1=
EXTT2=
EXTT3=
EXTT4=
EXTT5=
EXTT6=
EXTT7=
EXTT8=
EXTT9=
PLAYORDER=
